<?xml version="1.0" encoding="UTF-8" standalone="no"?>
<!-- Created with Inkscape (http://www.inkscape.org/) -->

<svg
   xmlns:dc="http://purl.org/dc/elements/1.1/"
   xmlns:cc="http://creativecommons.org/ns#"
   xmlns:rdf="http://www.w3.org/1999/02/22-rdf-syntax-ns#"
   xmlns:svg="http://www.w3.org/2000/svg"
   xmlns="http://www.w3.org/2000/svg"
   xmlns:sodipodi="http://sodipodi.sourceforge.net/DTD/sodipodi-0.dtd"
   xmlns:inkscape="http://www.inkscape.org/namespaces/inkscape"
   version="1.0"
   width="166.03305"
   height="192.11954"
   id="svg2811"
   inkscape:version="0.92.4 (5da689c313, 2019-01-14)"
   sodipodi:docname="hexicon.svg"
   inkscape:export-filename="/home/pacha/GitHub/gravity/docs/apple.png"
   inkscape:export-xdpi="90"
   inkscape:export-ydpi="90">
  <metadata
     id="metadata17">
    <rdf:RDF>
      <cc:Work
         rdf:about="">
        <dc:format>image/svg+xml</dc:format>
        <dc:type
           rdf:resource="http://purl.org/dc/dcmitype/StillImage" />
        <dc:title />
      </cc:Work>
    </rdf:RDF>
  </metadata>
  <sodipodi:namedview
     pagecolor="#ffffff"
     bordercolor="#666666"
     borderopacity="1"
     objecttolerance="10"
     gridtolerance="10"
     guidetolerance="10"
     inkscape:pageopacity="0"
     inkscape:pageshadow="2"
     inkscape:window-width="1366"
     inkscape:window-height="705"
     id="namedview15"
     showgrid="false"
     fit-margin-top="0"
     fit-margin-left="0"
     fit-margin-right="0"
     fit-margin-bottom="0"
     inkscape:zoom="2.0763602"
     inkscape:cx="-0.10883925"
     inkscape:cy="94.139532"
     inkscape:window-x="-8"
     inkscape:window-y="-8"
     inkscape:window-maximized="1"
     inkscape:current-layer="g79"
     showguides="true"
     inkscape:guide-bbox="true" />
  <defs
     id="defs2813">
    <inkscape:perspective
       sodipodi:type="inkscape:persp3d"
       inkscape:vp_x="0 : 882.13641 : 1"
       inkscape:vp_y="0 : 1000 : 0"
       inkscape:vp_z="1500 : 882.13641 : 1"
       inkscape:persp3d-origin="750 : 588.09094 : 1"
       id="perspective4362" />
    <clipPath
       id="clp12">
      <path
         d="m 45.315,71.927 h 12.92 v 15.867 h -12.92 z"
         id="path184"
         inkscape:connector-curvature="0" />
    </clipPath>
    <clipPath
       id="clp21">
      <path
         d="m 123.91,72.178 h 26.23 v 15.294 h -26.23 z"
         id="path592"
         inkscape:connector-curvature="0" />
    </clipPath>
    <clipPath
       id="clp9">
      <path
         d="m 413.96,49.857 h 31.76 v 8.719 h -31.76 z"
         id="path100"
         inkscape:connector-curvature="0" />
    </clipPath>
  </defs>
  <g
     transform="translate(2262.3539,-2951.9859)"
     id="layer1">
    <g
       transform="translate(19.48863,19.49672)"
       id="g25472">
      <g
         id="g4353"
         transform="matrix(0.67573771,0,0,0.67573771,374.45067,977.3331)">
        <g
           transform="translate(80.542606)"
           id="g4347">
          <g
             id="g79"
             transform="translate(8.0109432,4.5958121)">
            <path
               sodipodi:type="star"
               style="fill:#ffffff;fill-opacity:1;stroke:#970332;stroke-width:73.99320221;stroke-miterlimit:4;stroke-dasharray:none;stroke-opacity:1"
               id="path4560"
               sodipodi:sides="6"
               sodipodi:cx="-5551.2134"
               sodipodi:cy="-204.52565"
               sodipodi:r1="1701.6108"
               sodipodi:r2="1473.6381"
               sodipodi:arg1="1.0471976"
               sodipodi:arg2="1.5707963"
               inkscape:flatsided="true"
               inkscape:rounded="0"
               inkscape:randomized="0"
               d="m -4700.408,1269.1126 -1701.6109,-10e-5 -850.8053,-1473.63823 850.8055,-1473.63817 1701.6108,10e-5 850.8054,1473.63823 z"
               inkscape:transform-center-x="1.5731476e-05"
               inkscape:transform-center-y="7.9344316e-05"
               transform="matrix(0,0.08149567,-0.08132553,0,-3913.2866,3483.3248)" />
            <path
               id="path22"
               style="fill:#98002e;fill-opacity:1;fill-rule:nonzero;stroke:none;stroke-width:1.26314473"
               d="m -3846.4699,3024.8943 c 0,3.0555 -2.4543,3.9119 -2.7801,4.0142 -1.1217,0.2742 -27.4912,7.469 -30.4658,8.1031 l -0.8047,0.1743 c -2.5755,0.595 -3.3196,-0.1528 -4.6269,-3.4774 -0.5242,-1.3415 -0.6593,-2.2042 -0.6593,-2.7499 0,-0.48 0.1073,-0.7111 0.1502,-0.7743 0.029,-0.048 0.072,-0.068 0.1087,-0.092 0.8337,0.2994 3.8753,1.2543 3.8753,1.2543 0.3613,0.1364 0.7617,0.149 1.1331,0.037 0.8362,-0.2501 22.5433,-6.2147 25.398,-7.2946 2.9444,-1.1205 3.3006,-5.3873 3.2956,-6.2248 v -7.872 c 0,-0.9561 -0.8021,-1.738 -1.7899,-1.738 -0.9903,0 -1.7949,0.7819 -1.7949,1.738 v 7.8745 c -0.01,1.3857 -0.6695,2.8661 -1.0333,3.0113 -1.9755,0.7719 -15.9813,4.4653 -23.1597,6.6012 -0.082,-0.029 -2.0413,-25.0607 2.6879,-34.955 l -6.274,-6.9801 -0.8969,-4.373 8.5781,3.0139 c 1.7709,4.3705 5.506,7.3868 9.8209,7.3868 1.4665,0 2.7208,-0.3612 4.0016,-0.9902 0,0 -0.2854,1.5056 0.8994,2.2155 l 8.7018,4.786 c 1.872,0.9297 5.6349,4.9831 5.6349,12.4091 z m -19.2377,-55.9991 c 4.0496,0 7.3578,4.3099 7.3578,9.6075 0,5.3027 -3.3082,9.6151 -7.3578,9.6151 -4.0572,0 -7.3603,-4.3124 -7.3603,-9.6151 0,-5.2976 3.3031,-9.6075 7.3603,-9.6075 m -30.9458,23.6284 -8.9633,-6.9801 c 0,0 1.1546,-6.5254 1.795,-10.4891 2.0311,1.5776 4.1671,2.6285 7.1683,2.6134 3.0038,0.015 5.1423,-1.0358 7.1709,-2.6134 0.6416,3.9637 1.7924,10.4891 1.7924,10.4891 z m -11.2003,-33.515 c 0,-2.6766 0.5104,-5.189 1.3415,-7.3755 2.7726,-0.3827 6.7224,-1.0458 9.8588,-1.0458 3.1414,0 7.0888,0.6631 9.8589,1.0458 0.8362,2.1865 1.3465,4.6989 1.3465,7.3755 0,4.7103 -1.9263,9.0833 -4.4968,11.9986 -1.2707,1.4362 -3.8514,3.1743 -6.7086,3.1743 -2.8572,0 -5.4365,-1.7381 -6.7086,-3.1743 -2.578,-2.9153 -4.4917,-7.2883 -4.4917,-11.9986 m 11.2003,103.4162 11.9519,3.7124 -11.9519,9.3826 -8.9633,-6.9864 c 2.328,-6.1376 8.9633,-6.1086 8.9633,-6.1086 m 46.7958,-67.4191 -8.2636,-4.6711 v -2.3065 c 2.1234,-2.3974 3.3133,-5.7751 3.3133,-9.5254 0,-7.1999 -4.8909,-13.0659 -10.8997,-13.0659 -6.0139,0 -10.9022,5.866 -10.9022,13.0659 0,0.4598 0.018,0.9057 0.053,1.3427 l -8.4429,-3.0479 -0.8993,-5.2421 c 2.3975,-3.4244 3.5823,-7.7531 3.5823,-12.5468 0,-2.3898 -4.4779,-28.5117 -4.4779,-28.5117 0,0 -0.485,-1.8455 -1.7924,-2.6273 -1.6951,-0.6821 -3.9196,-1.7495 -8.0664,-1.7495 -4.1444,0 -6.3714,1.0674 -8.0652,1.7495 -1.3061,0.7818 -1.7937,2.6273 -1.7937,2.6273 0,0 -4.4804,26.1219 -4.4804,28.5117 0,4.7937 1.19,9.1224 3.5861,12.5468 l -0.8981,5.2421 -25.7896,13.9325 c 0,0 -7.3642,3.3044 -7.3642,10.5245 v 34.9512 c 0,0 -0.6997,6.3334 7.6042,14.4315 l 37.1882,29.2519 17.3266,-13.6256 -2.2105,-2.6425 -15.1161,-4.6976 -23.8001,-18.7135 c -5.314,-5.1865 -4.8606,-9.2412 -4.8606,-9.2412 v -20.977 c 0,-0.9562 0.7982,-1.7381 1.7885,-1.7381 0.9916,0 1.7899,0.7819 1.7899,1.7381 v 20.977 c 0,0 -0.3929,2.4202 4.2568,6.9524 l 20.8381,16.6406 17.9329,-14.3784 23.2734,-6.3699 0.01,2.3986 c 0,0 0.6505,4.9515 -6.9915,12.3991 l -16.3577,12.8651 2.2206,2.6109 17.0967,-13.4499 c 8.3063,-8.0981 7.6293,-14.4315 7.6293,-14.4315 l -0.01,-3.1983 c 2.2232,-0.5077 3.6619,-0.8273 3.9777,-0.9132 0.5949,-0.1718 4.9932,-1.7129 4.9932,-7.1999 v -14.9026 c 0,-9.1957 -5.5035,-14.3721 -6.9726,-14.986"
               inkscape:connector-curvature="0" />
            <text
               xml:space="preserve"
               style="font-style:normal;font-weight:normal;font-size:39.46304321px;line-height:0;font-family:sans-serif;letter-spacing:0px;word-spacing:0px;fill:#000000;fill-opacity:1;stroke:none;stroke-width:1.47986412"
               x="-3962.5459"
               y="3113.2117"
               id="text31"><tspan
                 sodipodi:role="line"
                 id="tspan29"
                 x="-3962.5459"
                 y="3113.2117"
                 style="font-style:normal;font-variant:normal;font-weight:bold;font-stretch:normal;font-size:31.57043457px;font-family:Verdana;-inkscape-font-specification:'Verdana Bold';stroke-width:1.47986412">Shriner</tspan></text>
          </g>
          <g
             id="g4483"
             transform="matrix(0.05952936,0,3.5003203e-4,0.05952936,-3628.393,3020.4988)" />
        </g>
      </g>
    </g>
  </g>
</svg>
