<?xml version="1.0" encoding="UTF-8" standalone="no"?>
<!-- Created with Inkscape (http://www.inkscape.org/) -->

<svg
   xmlns:dc="http://purl.org/dc/elements/1.1/"
   xmlns:cc="http://creativecommons.org/ns#"
   xmlns:rdf="http://www.w3.org/1999/02/22-rdf-syntax-ns#"
   xmlns:svg="http://www.w3.org/2000/svg"
   xmlns="http://www.w3.org/2000/svg"
   xmlns:sodipodi="http://sodipodi.sourceforge.net/DTD/sodipodi-0.dtd"
   xmlns:inkscape="http://www.inkscape.org/namespaces/inkscape"
   version="1.0"
   width="166.03305"
   height="192.11954"
   id="svg2811"
   inkscape:version="0.92.4 (5da689c313, 2019-01-14)"
   sodipodi:docname="hexicon.svg"
   inkscape:export-filename="/home/pacha/GitHub/gravity/docs/apple.png"
   inkscape:export-xdpi="90"
   inkscape:export-ydpi="90">
  <metadata
     id="metadata17">
    <rdf:RDF>
      <cc:Work
         rdf:about="">
        <dc:format>image/svg+xml</dc:format>
        <dc:type
           rdf:resource="http://purl.org/dc/dcmitype/StillImage" />
        <dc:title />
      </cc:Work>
    </rdf:RDF>
  </metadata>
  <sodipodi:namedview
     pagecolor="#ffffff"
     bordercolor="#666666"
     borderopacity="1"
     objecttolerance="10"
     gridtolerance="10"
     guidetolerance="10"
     inkscape:pageopacity="0"
     inkscape:pageshadow="2"
     inkscape:window-width="1366"
     inkscape:window-height="705"
     id="namedview15"
     showgrid="false"
     fit-margin-top="0"
     fit-margin-left="0"
     fit-margin-right="0"
     fit-margin-bottom="0"
     inkscape:zoom="2.0763602"
     inkscape:cx="-14.072929"
     inkscape:cy="94.139532"
     inkscape:window-x="-8"
     inkscape:window-y="-8"
     inkscape:window-maximized="1"
     inkscape:current-layer="g1498"
     showguides="true"
     inkscape:guide-bbox="true" />
  <defs
     id="defs2813">
    <inkscape:perspective
       sodipodi:type="inkscape:persp3d"
       inkscape:vp_x="0 : 882.13641 : 1"
       inkscape:vp_y="0 : 1000 : 0"
       inkscape:vp_z="1500 : 882.13641 : 1"
       inkscape:persp3d-origin="750 : 588.09094 : 1"
       id="perspective4362" />
    <clipPath
       id="clp12">
      <path
         d="m 45.315,71.927 h 12.92 v 15.867 h -12.92 z"
         id="path184"
         inkscape:connector-curvature="0" />
    </clipPath>
    <clipPath
       id="clp21">
      <path
         d="m 123.91,72.178 h 26.23 v 15.294 h -26.23 z"
         id="path592"
         inkscape:connector-curvature="0" />
    </clipPath>
    <clipPath
       id="clp9">
      <path
         d="m 413.96,49.857 h 31.76 v 8.719 h -31.76 z"
         id="path100"
         inkscape:connector-curvature="0" />
    </clipPath>
  </defs>
  <g
     transform="translate(2262.3539,-2951.9859)"
     id="layer1">
    <g
       transform="translate(19.48863,19.49672)"
       id="g25472">
      <g
         id="g4353"
         transform="matrix(0.67573771,0,0,0.67573771,374.45067,977.3331)">
        <g
           transform="translate(80.542606)"
           id="g4347">
          <g
             id="g79"
             transform="translate(8.0109432,4.5958121)">
            <path
               sodipodi:type="star"
               style="fill:#ffffff;fill-opacity:1;stroke:#970332;stroke-width:73.99320221;stroke-miterlimit:4;stroke-dasharray:none;stroke-opacity:1"
               id="path4560"
               sodipodi:sides="6"
               sodipodi:cx="-5551.2134"
               sodipodi:cy="-204.52565"
               sodipodi:r1="1701.6108"
               sodipodi:r2="1473.6381"
               sodipodi:arg1="1.0471976"
               sodipodi:arg2="1.5707963"
               inkscape:flatsided="true"
               inkscape:rounded="0"
               inkscape:randomized="0"
               d="m -4700.408,1269.1126 -1701.6109,-10e-5 -850.8053,-1473.63823 850.8055,-1473.63817 1701.6108,10e-5 850.8054,1473.63823 z"
               inkscape:transform-center-x="1.5731476e-05"
               inkscape:transform-center-y="7.9344316e-05"
               transform="matrix(0,0.08149567,-0.08132553,0,-3913.2866,3483.3248)" />
            <g
               id="g841"
               transform="translate(0,11.077733)">
              <text
                 id="text31"
                 y="3113.2117"
                 x="-3943.2332"
                 style="font-style:normal;font-weight:normal;font-size:39.46304321px;line-height:0;font-family:sans-serif;letter-spacing:0px;word-spacing:0px;fill:#000000;fill-opacity:1;stroke:none;stroke-width:1.47986412"
                 xml:space="preserve"><tspan
                   style="font-style:normal;font-variant:normal;font-weight:bold;font-stretch:normal;font-size:31.57043457px;font-family:'Fira Sans Condensed';-inkscape-font-specification:'Fira Sans Condensed,  Bold';stroke-width:1.47986412"
                   y="3113.2117"
                   x="-3943.2332"
                   id="tspan29"
                   sodipodi:role="line">Shriner</tspan></text>
              <g
                 transform="matrix(0.64414804,0,0,0.64414804,-1236.095,1003.2164)"
                 id="g1498">
                <g
                   id="g847"
                   transform="matrix(1.1859699,0,0,1.1859699,768.12119,-600.81816)">
                  <g
                     id="g20"
                     transform="matrix(1.7105798,0,0,-1.7105798,-4062.3757,3147.0734)">
                    <path
                       d="M 0,0 C 0,-2.419 -1.943,-3.097 -2.201,-3.178 -3.089,-3.395 -23.965,-9.091 -26.32,-9.593 l -0.637,-0.138 c -2.039,-0.471 -2.628,0.121 -3.663,2.753 -0.415,1.062 -0.522,1.745 -0.522,2.177 0,0.38 0.085,0.563 0.119,0.613 0.023,0.038 0.057,0.054 0.086,0.073 0.66,-0.237 3.068,-0.993 3.068,-0.993 0.286,-0.108 0.603,-0.118 0.897,-0.029 0.662,0.198 17.847,4.92 20.107,5.775 2.331,0.887 2.613,4.265 2.609,4.928 v 6.232 c 0,0.757 -0.635,1.376 -1.417,1.376 -0.784,0 -1.421,-0.619 -1.421,-1.376 V 5.564 C -7.098,4.467 -7.624,3.295 -7.912,3.18 -9.476,2.569 -20.564,-0.355 -26.247,-2.046 c -0.065,0.023 -1.616,19.84 2.128,27.673 l -4.967,5.526 -0.71,3.462 6.791,-2.386 c 1.402,-3.46 4.359,-5.848 7.775,-5.848 1.161,0 2.154,0.286 3.168,0.784 0,0 -0.226,-1.192 0.712,-1.754 l 6.889,-3.789 C -2.979,20.886 0,17.677 0,11.798 Z m -15.23,44.333 c 3.206,0 5.825,-3.412 5.825,-7.606 0,-4.198 -2.619,-7.612 -5.825,-7.612 -3.212,0 -5.827,3.414 -5.827,7.612 0,4.194 2.615,7.606 5.827,7.606 m -24.499,-18.706 -7.096,5.526 c 0,0 0.914,5.166 1.421,8.304 1.608,-1.249 3.299,-2.081 5.675,-2.069 2.378,-0.012 4.071,0.82 5.677,2.069 0.508,-3.138 1.419,-8.304 1.419,-8.304 z m -8.867,26.533 c 0,2.119 0.404,4.108 1.062,5.839 2.195,0.303 5.322,0.828 7.805,0.828 2.487,0 5.612,-0.525 7.805,-0.828 0.662,-1.731 1.066,-3.72 1.066,-5.839 0,-3.729 -1.525,-7.191 -3.56,-9.499 -1.006,-1.137 -3.049,-2.513 -5.311,-2.513 -2.262,0 -4.304,1.376 -5.311,2.513 -2.041,2.308 -3.556,5.77 -3.556,9.499 m 8.867,-81.872 9.462,-2.939 -9.462,-7.428 -7.096,5.531 c 1.843,4.859 7.096,4.836 7.096,4.836 m 37.047,53.374 -6.542,3.698 v 1.826 c 1.681,1.898 2.623,4.572 2.623,7.541 0,5.7 -3.872,10.344 -8.629,10.344 -4.761,0 -8.631,-4.644 -8.631,-10.344 0,-0.364 0.014,-0.717 0.042,-1.063 l -6.684,2.413 -0.712,4.15 c 1.898,2.711 2.836,6.138 2.836,9.933 0,1.892 -3.545,22.572 -3.545,22.572 0,0 -0.384,1.461 -1.419,2.08 -1.342,0.54 -3.103,1.385 -6.386,1.385 -3.281,0 -5.044,-0.845 -6.385,-1.385 -1.034,-0.619 -1.42,-2.08 -1.42,-2.08 0,0 -3.547,-20.68 -3.547,-22.572 0,-3.795 0.942,-7.222 2.839,-9.933 l -0.711,-4.15 -20.417,-11.03 c 0,0 -5.83,-2.616 -5.83,-8.332 v -27.67 c 0,0 -0.554,-5.014 6.02,-11.425 l 29.441,-23.158 13.717,10.787 -1.75,2.092 -11.967,3.719 -18.842,14.815 c -4.207,4.106 -3.848,7.316 -3.848,7.316 l 0.002,16.607 c 0,0.757 0.632,1.376 1.416,1.376 0.785,0 1.417,-0.619 1.417,-1.376 l -0.002,-16.607 c 0,0 -0.311,-1.916 3.37,-5.504 l 16.497,-13.174 14.197,11.383 18.425,5.043 0.003,-1.899 c 0,0 0.515,-3.92 -5.535,-9.816 l -12.95,-10.185 1.758,-2.067 13.535,10.648 c 6.576,6.411 6.04,11.425 6.04,11.425 l -0.008,2.532 c 1.76,0.402 2.899,0.655 3.149,0.723 0.471,0.136 3.953,1.356 3.953,5.7 v 11.798 c 0,7.28 -4.357,11.378 -5.52,11.864"
                       style="fill:#98002e;fill-opacity:1;fill-rule:nonzero;stroke:none"
                       id="path22-4"
                       inkscape:connector-curvature="0" />
                  </g>
                  <g
                     id="g28"
                     transform="matrix(1.7105798,0,0,-1.7105798,-4112.095,3021.444)">
                    <path
                       inkscape:connector-curvature="0"
                       d="M 0,0 5.565,-25.589 2.128,-24.208 -2.837,2.763 C -2.837,2.763 -0.56,2.079 0,0"
                       style="fill:#000000;fill-opacity:1;fill-rule:nonzero;stroke:none"
                       id="path30" />
                  </g>
                </g>
              </g>
            </g>
          </g>
          <g
             id="g4483"
             transform="matrix(0.05952936,0,3.5003203e-4,0.05952936,-3628.393,3020.4988)" />
        </g>
      </g>
    </g>
  </g>
</svg>
